<?xml version="1.0" encoding="utf-8"?>
<!-- Generator: Adobe Illustrator 22.0.1, SVG Export Plug-In . SVG Version: 6.00 Build 0)  -->
<svg version="1.1" id="Layer_1" xmlns="http://www.w3.org/2000/svg" xmlns:xlink="http://www.w3.org/1999/xlink" x="0px" y="0px"
	 viewBox="0 0 512 512" style="enable-background:new 0 0 512 512;" xml:space="preserve">
<style type="text/css">
	.st0{fill:#FFFFFF;}
</style>
<title>instagram</title>
<path class="st0" d="M254.8,306.5c27.9,0.6,51-21.5,51.6-49.4c0.6-27.9-21.5-51-49.4-51.6c-27.9-0.6-51,21.5-51.6,49.4
	c0,0.1,0,0.3,0,0.4C205.1,283,227.1,305.8,254.8,306.5z"/>
<path class="st0" d="M332.9,265.3c-1.3,11-5,21.6-10.8,31.1c-21.7,35.6-67.6,47.7-104,27.3c-12.7-7-23.2-17.5-30.1-30.3
	c-10.5-19.4-12.2-39.8-6-60.9h-23.8v0.7c0,36.9,0,73.8,0,110.7c0.1,5.4,4.5,9.8,9.9,9.9h175.5c5.4-0.1,9.8-4.5,9.9-9.9
	c0-36.8,0-73.7,0-110.6v-0.8h-23.8C333.2,243.1,334.3,254.2,332.9,265.3z"/>
<path class="st0" d="M310.5,188.6c1.5,4.2,5.5,6.9,9.9,6.7h11.4l0,0c4.1,0,8.2,0.1,12.3,0c5.3-0.2,9.6-4.6,9.6-9.9v-23.7
	c0-5.6-4.4-10.1-10-10.1c0,0-0.1,0-0.1,0H320c-5.6,0-10.1,4.5-10.1,10.1c0,0,0,0.1,0,0.1c0,7.8,0,15.6,0,23.4
	C309.9,186.4,310.1,187.5,310.5,188.6z"/>
<path class="st0" d="M256,7.1C118.5,7.1,7.1,118.5,7.1,256S118.5,504.9,256,504.9S504.9,393.5,504.9,256S393.5,7.1,256,7.1z
	 M380.7,355.8c-0.2,1.1-0.3,2.2-0.5,3.3c-2.1,10.4-10.2,18.6-20.5,20.9c-1.3,0.3-2.6,0.5-3.9,0.7H156.3c-0.5-0.1-1.1-0.2-1.6-0.2
	c-11.1-1.5-20.1-9.7-22.7-20.6c-0.3-1.3-0.5-2.5-0.7-3.8V156c0.1-0.5,0.2-0.9,0.2-1.4c1.5-11.1,9.8-20.2,20.8-22.6
	c1.2-0.3,2.4-0.4,3.6-0.6H356c0.5,0.1,0.9,0.2,1.4,0.2c11.4,1.6,20.5,10.2,22.7,21.4c0.2,1.1,0.4,2.2,0.5,3.3V355.8L380.7,355.8z"/>
</svg>
