<svg id="Layer_1" data-name="Layer 1" xmlns="http://www.w3.org/2000/svg" viewBox="0 0 512 512"><defs><style>.cls-1{fill:#44a3f7;}</style></defs><title>instagram-blue</title><path class="cls-1" d="M254.8,306.5a50.51,50.51,0,1,0-49.4-51.6v.4A50.67,50.67,0,0,0,254.8,306.5Z"/><path class="cls-1" d="M332.9,265.3a77.55,77.55,0,0,1-114.8,58.4A75.67,75.67,0,0,1,188,293.4c-10.5-19.4-12.2-39.8-6-60.9H158.2V343.9a10.12,10.12,0,0,0,9.9,9.9H343.6a10.12,10.12,0,0,0,9.9-9.9V232.5H329.7A74.43,74.43,0,0,1,332.9,265.3Z"/><path class="cls-1" d="M310.5,188.6a10,10,0,0,0,9.9,6.7h11.4c4.1,0,8.2.1,12.3,0a10,10,0,0,0,9.6-9.9V161.7a10,10,0,0,0-10-10.1H320a10.07,10.07,0,0,0-10.1,10.1v23.5A9.74,9.74,0,0,0,310.5,188.6Z"/><path class="cls-1" d="M256,7.1C118.5,7.1,7.1,118.5,7.1,256S118.5,504.9,256,504.9,504.9,393.5,504.9,256,393.5,7.1,256,7.1ZM380.7,355.8c-.2,1.1-.3,2.2-.5,3.3A27,27,0,0,1,359.7,380c-1.3.3-2.6.5-3.9.7H156.3a8.75,8.75,0,0,0-1.6-.2A27.09,27.09,0,0,1,132,359.9c-.3-1.3-.5-2.5-.7-3.8V156a6.75,6.75,0,0,0,.2-1.4A26.83,26.83,0,0,1,152.3,132c1.2-.3,2.4-.4,3.6-.6H356a6.75,6.75,0,0,0,1.4.2A26.89,26.89,0,0,1,380.1,153c.2,1.1.4,2.2.5,3.3V355.8Z"/></svg>