<svg id="Layer_1" data-name="Layer 1" xmlns="http://www.w3.org/2000/svg" xmlns:xlink="http://www.w3.org/1999/xlink" viewBox="0 0 512 512"><defs><style>.cls-1{fill:url(#linear-gradient);}</style><linearGradient id="linear-gradient" x1="40.41" y1="131.53" x2="471.59" y2="380.47" gradientUnits="userSpaceOnUse"><stop offset="1" stop-color="#04145b"/><stop offset="1" stop-color="#767ea4"/></linearGradient></defs><title>twitter</title><path class="cls-1" d="M256,7.1C118.54,7.1,7.1,118.54,7.1,256S118.54,504.9,256,504.9,504.9,393.47,504.9,256,393.46,7.1,256,7.1ZM377.17,193.85q.18,4,.17,8.1c0,82.61-62.87,177.87-177.87,177.87a176.91,176.91,0,0,1-95.83-28.09,126.15,126.15,0,0,0,92.55-25.89,62.58,62.58,0,0,1-58.4-43.42,61.94,61.94,0,0,0,11.76,1.13A62.84,62.84,0,0,0,166,281.36a62.56,62.56,0,0,1-50.15-61.3c0-.27,0-.53,0-.79a62.35,62.35,0,0,0,28.32,7.82,62.59,62.59,0,0,1-19.35-83.47,177.5,177.5,0,0,0,128.86,65.32,62.55,62.55,0,0,1,106.52-57,125.13,125.13,0,0,0,39.7-15.18,62.63,62.63,0,0,1-27.49,34.59,124.4,124.4,0,0,0,35.91-9.84A126.58,126.58,0,0,1,377.17,193.85Z"/></svg>