<svg id="Layer_1" data-name="Layer 1" xmlns="http://www.w3.org/2000/svg" viewBox="0 0 512 512"><defs><style>.cls-1{fill:#44a3f7;}</style></defs><title>twitter-blue</title><path class="cls-1" d="M256,7.1C118.5,7.1,7.1,118.5,7.1,256S118.5,504.9,256,504.9,504.9,393.5,504.9,256,393.5,7.1,256,7.1ZM377.2,193.9c.1,2.7.2,5.4.2,8.1,0,82.6-62.9,177.9-177.9,177.9a176.85,176.85,0,0,1-95.8-28.1,126.42,126.42,0,0,0,92.6-25.9,62.71,62.71,0,0,1-58.4-43.4,58.25,58.25,0,0,0,11.8,1.1,60.07,60.07,0,0,0,16.4-2.2,62.63,62.63,0,0,1-50.2-61.3v-.8a62.55,62.55,0,0,0,28.3,7.8,62.57,62.57,0,0,1-19.3-83.5,177.22,177.22,0,0,0,128.9,65.3,62.54,62.54,0,0,1,106.5-57A126.13,126.13,0,0,0,400,136.7a62.62,62.62,0,0,1-27.5,34.6,127.51,127.51,0,0,0,35.9-9.8A129.89,129.89,0,0,1,377.2,193.9Z"/></svg>