<?xml version="1.0" encoding="utf-8"?>
<!-- Generator: Adobe Illustrator 22.0.1, SVG Export Plug-In . SVG Version: 6.00 Build 0)  -->
<svg version="1.1" id="Layer_1" xmlns="http://www.w3.org/2000/svg" xmlns:xlink="http://www.w3.org/1999/xlink" x="0px" y="0px"
	 viewBox="0 0 512 512" style="enable-background:new 0 0 512 512;" xml:space="preserve">
<style type="text/css">
	.st0{fill:#FFFFFF;}
</style>
<title>twitter</title>
<path class="st0" d="M256,7.1C118.5,7.1,7.1,118.5,7.1,256S118.5,504.9,256,504.9S504.9,393.5,504.9,256S393.5,7.1,256,7.1z
	 M377.2,193.9c0.1,2.7,0.2,5.4,0.2,8.1c0,82.6-62.9,177.9-177.9,177.9c-34,0-67.2-9.7-95.8-28.1c33.1,3.9,66.3-5.4,92.6-25.9
	c-26.7-0.5-50.2-18-58.4-43.4c3.9,0.8,7.8,1.1,11.8,1.1c5.6,0,11.1-0.7,16.4-2.2c-29.2-5.9-50.1-31.5-50.2-61.3c0-0.3,0-0.5,0-0.8
	c8.7,4.8,18.4,7.5,28.3,7.8c-27.5-18.4-35.9-54.9-19.3-83.5c31.7,39.1,78.6,62.8,128.9,65.3c-7.8-33.6,13.1-67.3,46.7-75.1
	c21.7-5.1,44.5,1.8,59.8,18.1c14-2.8,27.4-7.9,39.7-15.2c-4.7,14.5-14.4,26.8-27.5,34.6c12.4-1.5,24.5-4.8,35.9-9.8
	C399.9,174.1,389.4,185,377.2,193.9z"/>
</svg>
