<svg id="Layer_1" data-name="Layer 1" xmlns="http://www.w3.org/2000/svg" viewBox="0 0 512 512"><defs><style>.cls-1{fill:#44a3f7;}</style></defs><title>youtube-blue</title><polygon class="cls-1" points="217.9 313.1 313.2 256 217.9 198.9 217.9 313.1"/><path class="cls-1" d="M256,7.1C118.5,7.1,7.1,118.5,7.1,256S118.5,504.9,256,504.9,504.9,393.5,504.9,256,393.5,7.1,256,7.1ZM408.4,268.3a513.58,513.58,0,0,1-3,52.6s-3,22.4-12.1,32.2c-11.6,12.9-24.6,13-30.5,13.8-42.7,3.3-106.7,3.4-106.7,3.4s-79.2-.8-103.6-3.3c-6.8-1.4-22-1-33.6-13.9-9.1-9.9-12.1-32.2-12.1-32.2a513.58,513.58,0,0,1-3-52.6V243.7a513.58,513.58,0,0,1,3-52.6s3-22.4,12.1-32.3c11.6-12.9,24.6-13,30.5-13.7,42.6-3.3,106.6-3.3,106.6-3.3h.1s64,0,106.6,3.3c6,.7,18.9.8,30.5,13.7,9.1,9.9,12.1,32.2,12.1,32.2a513.58,513.58,0,0,1,3,52.6l.1,24.7Z"/></svg>