<?xml version="1.0" encoding="utf-8"?>
<!-- Generator: Adobe Illustrator 22.0.1, SVG Export Plug-In . SVG Version: 6.00 Build 0)  -->
<svg version="1.1" id="Layer_1" xmlns="http://www.w3.org/2000/svg" xmlns:xlink="http://www.w3.org/1999/xlink" x="0px" y="0px"
	 viewBox="0 0 512 512" style="enable-background:new 0 0 512 512;" xml:space="preserve">
<style type="text/css">
	.st0{fill:#FFFFFF;}
</style>
<title>youtube</title>
<polygon class="st0" points="217.9,313.1 313.2,256 217.9,198.9 "/>
<path class="st0" d="M256,7.1C118.5,7.1,7.1,118.5,7.1,256S118.5,504.9,256,504.9S504.9,393.5,504.9,256S393.5,7.1,256,7.1z
	 M408.4,268.3c-0.1,17.6-1.1,35.1-3,52.6c0,0-3,22.4-12.1,32.2c-11.6,12.9-24.6,13-30.5,13.8c-42.7,3.3-106.7,3.4-106.7,3.4
	s-79.2-0.8-103.6-3.3c-6.8-1.4-22-1-33.6-13.9c-9.1-9.9-12.1-32.2-12.1-32.2c-1.9-17.5-2.9-35-3-52.6v-24.6
	c0.1-17.6,1.1-35.1,3-52.6c0,0,3-22.4,12.1-32.3c11.6-12.9,24.6-13,30.5-13.7c42.6-3.3,106.6-3.3,106.6-3.3h0.1c0,0,64,0,106.6,3.3
	c6,0.7,18.9,0.8,30.5,13.7c9.1,9.9,12.1,32.2,12.1,32.2c1.9,17.5,2.9,35,3,52.6L408.4,268.3L408.4,268.3z"/>
</svg>
