<svg id="Layer_1" data-name="Layer 1" xmlns="http://www.w3.org/2000/svg" xmlns:xlink="http://www.w3.org/1999/xlink" viewBox="0 0 512 512"><defs><style>.cls-1{fill:url(#linear-gradient);}.cls-2{fill:url(#linear-gradient-2);}</style><linearGradient id="linear-gradient" x1="193.2" y1="241.71" x2="289.38" y2="297.24" gradientUnits="userSpaceOnUse"><stop offset="1" stop-color="#001059"/><stop offset="1" stop-color="#767ea4"/></linearGradient><linearGradient id="linear-gradient-2" x1="40.41" y1="131.53" x2="471.59" y2="380.47" xlink:href="#linear-gradient"/></defs><title>youtube</title><polygon class="cls-1" points="217.95 313.15 313.2 256 217.95 198.85 217.95 313.15"/><path class="cls-2" d="M256,7.1C118.54,7.1,7.1,118.54,7.1,256S118.53,504.9,256,504.9,504.9,393.46,504.9,256,393.46,7.1,256,7.1ZM408.35,268.29a523.6,523.6,0,0,1-3,52.61s-3,22.4-12.11,32.25c-11.59,12.93-24.57,13-30.53,13.77C320,370.18,256,370.3,256,370.3s-79.23-.77-103.6-3.27c-6.78-1.35-22-1-33.59-13.9-9.13-9.85-12.11-32.25-12.11-32.25a523.37,523.37,0,0,1-3-52.61V243.63a523.55,523.55,0,0,1,3-52.6s3-22.41,12.11-32.28c11.6-12.93,24.57-13,30.53-13.74,42.63-3.3,106.59-3.3,106.59-3.3h.14s64,0,106.6,3.3c6,.73,18.93.81,30.53,13.74C402.33,168.62,405.3,191,405.3,191a523.6,523.6,0,0,1,3,52.6v24.65Z"/></svg>